<?xml version="1.0" encoding="UTF-8"?>
<svg width="120" height="120" viewBox="0 0 120 120" fill="none" xmlns="http://www.w3.org/2000/svg">
  <!-- Definiciones de gradientes -->
  <defs>
    <!-- Gradiente principal del ojo -->
    <radialGradient id="eyeGradient" cx="0.5" cy="0.4" r="0.6">
      <stop offset="0%" style="stop-color:#4299e1;stop-opacity:1" />
      <stop offset="100%" style="stop-color:#1a365d;stop-opacity:1" />
    </radialGradient>
    
    <!-- Gradiente de la pupila -->
    <radialGradient id="pupilGradient" cx="0.5" cy="0.5" r="0.5">
      <stop offset="0%" style="stop-color:#f6e05e;stop-opacity:0.8" />
      <stop offset="70%" style="stop-color:#1a365d;stop-opacity:1" />
      <stop offset="100%" style="stop-color:#000000;stop-opacity:1" />
    </radialGradient>
    
    <!-- Gradiente de la espiral interior -->
    <radialGradient id="spiralGradient" cx="0.5" cy="0.5" r="0.5">
      <stop offset="0%" style="stop-color:#ffffff;stop-opacity:0.9" />
      <stop offset="50%" style="stop-color:#f6e05e;stop-opacity:0.6" />
      <stop offset="100%" style="stop-color:#4299e1;stop-opacity:0.3" />
    </radialGradient>
  </defs>
  
  <!-- Forma exterior del ojo -->
  <ellipse cx="60" cy="60" rx="45" ry="25" fill="url(#eyeGradient)" stroke="#1a365d" stroke-width="2"/>
  
  <!-- Párpado superior sutil -->
  <path d="M 15 60 Q 60 45 105 60" fill="none" stroke="#1a365d" stroke-width="1.5" opacity="0.6"/>
  
  <!-- Párpado inferior sutil -->
  <path d="M 15 60 Q 60 75 105 60" fill="none" stroke="#1a365d" stroke-width="1.5" opacity="0.6"/>
  
  <!-- Iris -->
  <circle cx="60" cy="60" r="18" fill="url(#pupilGradient)" stroke="#2d3748" stroke-width="1"/>
  
  <!-- Pupila -->
  <circle cx="60" cy="60" r="8" fill="#000000"/>
  
  <!-- Espiral interior (símbolo de introspección) -->
  <g opacity="0.7">
    <path d="M 60 60 
             Q 65 57 67 60 
             Q 67 65 60 67 
             Q 52 67 50 60 
             Q 50 50 60 48 
             Q 72 48 75 60 
             Q 75 75 60 78" 
          fill="none" 
          stroke="url(#spiralGradient)" 
          stroke-width="1.5" 
          stroke-linecap="round"/>
  </g>
  
  <!-- Reflejo de luz en el ojo -->
  <ellipse cx="55" cy="55" rx="3" ry="5" fill="#ffffff" opacity="0.8"/>
  <circle cx="58" cy="52" r="1.5" fill="#ffffff" opacity="0.6"/>
  
  <!-- Pestañas superiores estilizadas -->
  <g stroke="#1a365d" stroke-width="2" stroke-linecap="round" opacity="0.7">
    <line x1="45" y1="45" x2="43" y2="40"/>
    <line x1="55" y1="42" x2="54" y2="36"/>
    <line x1="65" y1="42" x2="66" y2="36"/>
    <line x1="75" y1="45" x2="77" y2="40"/>
  </g>
  
  <!-- Pestañas inferiores estilizadas -->
  <g stroke="#1a365d" stroke-width="1.5" stroke-linecap="round" opacity="0.5">
    <line x1="50" y1="78" x2="49" y2="82"/>
    <line x1="60" y1="80" x2="60" y2="84"/>
    <line x1="70" y1="78" x2="71" y2="82"/>
  </g>
</svg>
