<?xml version="1.0" encoding="UTF-8"?>
<svg width="64" height="64" viewBox="0 0 64 64" fill="none" xmlns="http://www.w3.org/2000/svg">
  <!-- Definiciones de gradientes -->
  <defs>
    <radialGradient id="eyeGradient" cx="0.5" cy="0.4" r="0.6">
      <stop offset="0%" style="stop-color:#4299e1;stop-opacity:1" />
      <stop offset="100%" style="stop-color:#1a365d;stop-opacity:1" />
    </radialGradient>
    
    <radialGradient id="pupilGradient" cx="0.5" cy="0.5" r="0.5">
      <stop offset="0%" style="stop-color:#f6e05e;stop-opacity:0.8" />
      <stop offset="70%" style="stop-color:#1a365d;stop-opacity:1" />
      <stop offset="100%" style="stop-color:#000000;stop-opacity:1" />
    </radialGradient>
    
    <radialGradient id="spiralGradient" cx="0.5" cy="0.5" r="0.5">
      <stop offset="0%" style="stop-color:#ffffff;stop-opacity:0.9" />
      <stop offset="50%" style="stop-color:#f6e05e;stop-opacity:0.6" />
      <stop offset="100%" style="stop-color:#4299e1;stop-opacity:0.3" />
    </radialGradient>
  </defs>
  
  <!-- Forma exterior del ojo -->
  <ellipse cx="32" cy="32" rx="24" ry="14" fill="url(#eyeGradient)" stroke="#1a365d" stroke-width="1.5"/>
  
  <!-- Iris -->
  <circle cx="32" cy="32" r="10" fill="url(#pupilGradient)" stroke="#2d3748" stroke-width="0.8"/>
  
  <!-- Pupila -->
  <circle cx="32" cy="32" r="4.5" fill="#000000"/>
  
  <!-- Espiral interior -->
  <g opacity="0.7">
    <path d="M 32 32 Q 34 31 35 32 Q 35 34 32 35 Q 29 35 28 32 Q 28 29 32 28 Q 36 28 37 32" 
          fill="none" 
          stroke="url(#spiralGradient)" 
          stroke-width="1" 
          stroke-linecap="round"/>
  </g>
  
  <!-- Reflejo de luz -->
  <ellipse cx="30" cy="30" rx="2" ry="2.5" fill="#ffffff" opacity="0.8"/>
  
  <!-- Pestañas superiores -->
  <g stroke="#1a365d" stroke-width="1.2" stroke-linecap="round" opacity="0.6">
    <line x1="22" y1="24" x2="21" y2="21"/>
    <line x1="28" y1="22" x2="28" y2="19"/>
    <line x1="36" y1="22" x2="36" y2="19"/>
    <line x1="42" y1="24" x2="43" y2="21"/>
  </g>
  
  <!-- Pestañas inferiores -->
  <g stroke="#1a365d" stroke-width="1" stroke-linecap="round" opacity="0.4">
    <line x1="26" y1="42" x2="25" y2="45"/>
    <line x1="32" y1="43" x2="32" y2="46"/>
    <line x1="38" y1="42" x2="39" y2="45"/>
  </g>
</svg>
